<svg xmlns="http://www.w3.org/2000/svg" width="94.583" height="137.611" viewBox="0 0 94.583 137.611">
  <path id="Icon_awesome-question" data-name="Icon awesome-question" d="M49.218,0C27.764,0,13.869,8.79,2.96,24.465A6.457,6.457,0,0,0,4.352,33.3l11.594,8.791a6.45,6.45,0,0,0,8.937-1.115c6.732-8.434,11.727-13.291,22.243-13.291,8.269,0,18.5,5.321,18.5,13.339,0,6.061-5,9.174-13.168,13.751-9.521,5.338-22.12,11.981-22.12,28.6v2.631a6.45,6.45,0,0,0,6.451,6.451H56.263a6.45,6.45,0,0,0,6.451-6.451V84.455c0-11.52,33.669-12,33.669-43.172C96.383,17.808,72.031,0,49.218,0ZM46.524,100.375a18.618,18.618,0,1,0,18.618,18.618A18.639,18.639,0,0,0,46.524,100.375Z" transform="translate(-1.8)" fill="#fff"/>
</svg>
